<svg id="Layer_1" data-name="Layer 1" xmlns="http://www.w3.org/2000/svg" xmlns:xlink="http://www.w3.org/1999/xlink" viewBox="0 0 353 70"><defs><clipPath id="clip-path"><rect width="353" height="70" fill="none"/></clipPath></defs><g clip-path="url(#clip-path)"><rect width="353" height="70" fill="#ffcf72"/><circle cx="171.03" cy="48.87" r="39.21" transform="translate(15.54 135.25) rotate(-45)" fill="#fd9" opacity="0.5"/><circle cx="223.97" cy="19.35" r="39.21" transform="translate(51.91 164.04) rotate(-45)" fill="#fd9" opacity="0.5"/><circle cx="136.41" cy="37.35" r="9.29" transform="translate(-5.01 35.74) rotate(-14.66)" fill="#fd9"/><path d="M111.49-10.15S125.75.85,121.68,19s-2.42,38,14.75,41.43,16.69,19,16.69,19L71.65,91.6l-12-84.41Z" fill="#fd9"/><circle cx="302.67" cy="23.98" r="39.21" transform="translate(71.69 221.04) rotate(-45)" fill="#fd9"/><rect x="278.06" y="36.61" width="38.68" height="3.23" fill="#fff"/><path d="M0,0V70H72.78c-4-4.51-10.59-16.39-11.25-26.68-1-14.94,6.71-23.76,8.43-31.23A31.29,31.29,0,0,0,70,0Z" fill="#5d37cc"/><circle cx="23.02" cy="9.37" r="15.67" transform="translate(0.12 19.02) rotate(-45)" fill="#ffcf72"/><path d="M109.62,54.37A16.71,16.71,0,1,1,92.91,71.08a16.73,16.73,0,0,1,16.71-16.71Zm0-3.19a19.9,19.9,0,1,0,19.89,19.9,19.9,19.9,0,0,0-19.89-19.9Z" fill="#ff7981"/><circle cx="76.04" cy="1.64" r="6.35" transform="translate(0.51 10.54) rotate(-7.95)" fill="#ff7981"/><path d="M20.89,7.47h0L23,4.8h0a1,1,0,0,1,1-.42l63.59,9.81a1,1,0,0,1,.86.79L90,21.05a1,1,0,0,1-.67,1.23L87.63,24.6l-.06.07h0a1,1,0,0,1-.88.35l-3.35-.32-5-.48-3-.29L24,19a1,1,0,0,1-.92-.8l-2.4-9.87A1.05,1.05,0,0,1,20.89,7.47Z" fill="#ff7981"/><path d="M20.89,7.47h0L23,4.8h0a1,1,0,0,1,1-.42l5.85.9.9.77-3,8.22-4.34,4.47a1.06,1.06,0,0,1-.31-.53l-2.4-9.87A1.05,1.05,0,0,1,20.89,7.47Z" fill="#ff4f5b"/><path d="M90,21.05,88.5,15a1,1,0,0,0-.86-.79L24.05,4.38a1,1,0,0,0-1.18,1.28l2.4,9.87a1.05,1.05,0,0,0,.92.8l62.65,6A1,1,0,0,0,90,21.05Z" fill="#ff7981"/><path d="M87.49,21.16a.08.08,0,0,0,.08-.07A.07.07,0,0,0,87.5,21L27.19,14.72s-.09,0-.09.07a.08.08,0,0,0,.07.09l60.31,6.28Z" fill="#ffc4cf"/><path d="M64.72,13.52a.82.82,0,0,0,.89.73.81.81,0,0,0,.5-1,.73.73,0,1,0-1.39.3Z" fill="#ff4f5b"/><path d="M61.6,10.17l1,.15a1.9,1.9,0,0,1,1.73-1.79,2,2,0,0,1,1.75,2.17.92.92,0,0,1,0,.16,2.27,2.27,0,0,1-.68,1.56.5.5,0,0,0,0,.69.48.48,0,0,0,.36.16.51.51,0,0,0,.34-.14A3.29,3.29,0,0,0,67,11c0-.1,0-.21,0-.31a3,3,0,0,0-2.74-3.16A2.9,2.9,0,0,0,61.6,10.17Z" fill="#efeafe"/><path d="M65.33,8c-.09.13,0,.37.26.53s.5.16.59,0,0-.37-.26-.53S65.42,7.81,65.33,8Z" fill="#fff"/><path d="M66,8.88a.19.19,0,0,0,.08.26.2.2,0,0,0,.27,0,.19.19,0,0,0-.08-.26A.19.19,0,0,0,66,8.88Z" fill="#fff"/><path d="M57.79,12.51a.81.81,0,0,0,.89.73.83.83,0,0,0,.5-1,.73.73,0,1,0-1.39.31Z" fill="#ff4f5b"/><path d="M54.68,9.1l1,.15a1.9,1.9,0,0,1,1.72-1.74,2,2,0,0,1,1.76,2.17v.11a2.32,2.32,0,0,1-.69,1.62.5.5,0,0,0,0,.69.51.51,0,0,0,.36.15.5.5,0,0,0,.34-.13,3.36,3.36,0,0,0,1-2.18c0-.09,0-.17,0-.26a3,3,0,0,0-2.75-3.15A2.87,2.87,0,0,0,54.68,9.1Z" fill="#efeafe"/><path d="M58.43,7.1a.28.28,0,0,0,.12.37.27.27,0,0,0,.38,0,.27.27,0,0,0-.11-.37A.29.29,0,0,0,58.43,7.1Z" fill="#fff"/><path d="M50.85,11.5a.84.84,0,0,0,.9.73.83.83,0,0,0,.5-1,.82.82,0,0,0-.89-.73A.83.83,0,0,0,50.85,11.5Z" fill="#ff4f5b"/><path d="M47.75,8h0l1,.14A1.87,1.87,0,0,1,50.44,6.5,2,2,0,0,1,52.2,8.67v.05a2.34,2.34,0,0,1-.69,1.67.49.49,0,0,0,0,.7.51.51,0,0,0,.36.15.55.55,0,0,0,.34-.13,3.34,3.34,0,0,0,1-2.24v-.2a3,3,0,0,0-2.74-3.16A2.89,2.89,0,0,0,47.75,8Z" fill="#efeafe"/><path d="M51.72,6.13c-.07.1,0,.25.13.34s.3.08.36,0,0-.24-.13-.33S51.78,6,51.72,6.13Z" fill="#fff"/><path d="M51.27,6.17s0,.12.07.17a.15.15,0,0,0,.19,0s0-.12-.07-.17A.14.14,0,0,0,51.27,6.17Z" fill="#fff"/><path d="M25.38,17.54s1.3,10.68-1.24,19.87C20.29,51.37,11.7,55.9,11.7,55.9l54-6.89s8.26-4.29,12.4-11.69c3.13-5.59,5.17-14.23,5.17-14.23Z" fill="#cbb9fa"/><path d="M26.21,16.74a76.07,76.07,0,0,1,1.05,23.7,54.61,54.61,0,0,1-8.43,21.81L74.9,56.09A31.1,31.1,0,0,0,84.06,41.7c2.55-9,0-19.41,0-19.41Z" fill="#e4dbfd"/><polygon points="28.15 16.52 28.53 18.33 38.64 66.24 94.71 60.08 92.63 50.99 90.26 40.66 87.5 28.61 86 22.07 28.15 16.52" fill="#f8f6fd"/><polygon points="28.15 16.52 28.53 18.33 87.5 28.61 86 22.07 28.15 16.52" fill="#e4dbfd"/><path d="M43.74,40.45l2,9.26-5.17.23v.3L45.82,50l2,9.43.29-.07-2-9.37,9-.4,2,9.1.29-.07-2-9,8.51-.37L65.83,58l.29-.06-1.9-8.73,9.3-.4,1.88,8.42.3-.06-1.87-8.38,8.61-.38,1.76,8.11.29-.06-1.74-8.06,3.86-.17v-.3l-3.92.17L81,40.4h3.91v-.3H81l-1.81-8.35,3.93.13v-.3l-4-.13-1.49-6.91-.3.06,1.49,6.84-8.88-.3-1.63-7.31-.29.06,1.61,7.24-9.35-.3-1.68-7.74-.29.07,1.66,7.66-8.65-.29-1.76-8.12-.3.06L51,30.52l-9.14-.3L40,21.68l-.29.07,1.84,8.46-4.87-.16v.3l4.94.16,2.1,9.64H38.9v.3ZM51,30.82l2,9.32H44l-2.1-9.63Zm9,.3,1.95,9H53.36l-2-9.31Zm9.66.32,1.94,8.67-9.34,0-2-9Zm11,8.66H71.89L70,31.45l8.87.29Zm-6.88,8.38L72,40.41h8.75l1.67,7.71Zm-9.6.43-1.84-8.49h9.33l1.81,8.09Zm-8.82.38-1.92-8.86H62l1.84,8.5ZM44,40.45h9.07L55,49.31l-9,.39Z" fill="#5d37cc"/><path d="M54,32.37a.52.52,0,0,0,.53.52.52.52,0,0,0,.52-.53.53.53,0,1,0-1,0Z" fill="#fff"/><circle cx="85.51" cy="15.83" r="0.73" fill="#fff"/><circle cx="82.97" cy="16.92" r="0.36" fill="#fff"/><path d="M62.18,39.13a3.64,3.64,0,0,1,2.87-1.83,4.92,4.92,0,0,1,4,.91.51.51,0,0,1-.48.84c-.48-.12-.92-.35-1.4-.47a5.18,5.18,0,0,0-1.47-.15,3.08,3.08,0,0,0-2.29,1c-1,1.35-.26,3.42.63,4.63a7.56,7.56,0,0,0,4,2.68c1.75.46,4.22.34,4.93-1.67.82-2.35-1.37-4.16-2.77-5.67a.05.05,0,0,1,.06-.08c1.82,1.18,3.71,3.06,3.53,5.42S71,48.21,68.88,48a8.66,8.66,0,0,1-5.46-2.88C62.09,43.51,61.21,41.09,62.18,39.13Z" fill="#ff7981"/><path d="M68.76,41.6a3.4,3.4,0,0,0-.45,0l.08-.09a1.83,1.83,0,0,0,.48-.69.39.39,0,0,0-.4-.48,2.72,2.72,0,0,0-.78.2,5.4,5.4,0,0,0-.74.33,4.74,4.74,0,0,0-1.3,1,.12.12,0,0,0,.16.17,5.12,5.12,0,0,1,2.27-1.21l.21,0h0c-.14.16-.28.32-.44.47a5.42,5.42,0,0,1-1.06.77c-.34.19,0,.7.31.52a3.53,3.53,0,0,1,1.46-.39,2.62,2.62,0,0,1,.74.06c.19,0,.23.05.09.19a5.92,5.92,0,0,1-2.6,1.33.27.27,0,0,0,.07.53,4.2,4.2,0,0,0,1.88-.6,6.23,6.23,0,0,0,.8-.54,1.36,1.36,0,0,0,.57-.75C70.22,41.72,69.27,41.61,68.76,41.6Z" fill="#5d37cc"/><circle cx="22.05" cy="62.7" r="10.68" fill="#ffcf72"/><rect x="27.86" y="30.66" width="0.57" height="10.16" transform="translate(63.89 7.59) rotate(90)" fill="#ff7981"/><rect x="27.86" y="32.29" width="0.57" height="10.16" transform="matrix(0, 1, -1, 0, 65.52, 9.22)" fill="#ff7981"/><rect x="27.86" y="33.92" width="0.57" height="10.16" transform="translate(67.15 10.85) rotate(90)" fill="#ff7981"/><rect x="27.86" y="35.55" width="0.57" height="10.16" transform="translate(68.78 12.48) rotate(90)" fill="#ff7981"/><rect x="27.86" y="37.18" width="0.57" height="10.16" transform="translate(70.41 14.1) rotate(90)" fill="#ff7981"/><circle cx="62.68" cy="61.63" r="2.83" fill="#ffcf72"/><rect width="353" height="70" fill="none"/><path d="M243.94,8.58h3.43a5.81,5.81,0,0,1,3,.6,2,2,0,0,1,1,1.85,2.38,2.38,0,0,1-.42,1.42,1.88,1.88,0,0,1-1.12.75v.07a2.34,2.34,0,0,1,1.33.8,2.48,2.48,0,0,1,.41,1.47,2.52,2.52,0,0,1-1,2.11,4.42,4.42,0,0,1-2.74.77h-3.83Zm2.66,3.78h.8a1.45,1.45,0,0,0,.89-.24.83.83,0,0,0,.31-.7c0-.55-.42-.82-1.25-.82h-.75Zm0,1.94v2.07h.94c.82,0,1.24-.35,1.24-1.05a.92.92,0,0,0-.33-.76,1.6,1.6,0,0,0-1-.26Z" fill="#5d37cc"/><path d="M260.35,14.59a4,4,0,0,1-1,2.92,3.69,3.69,0,0,1-2.81,1,3.61,3.61,0,0,1-2.76-1.07,4,4,0,0,1-1-2.89,4,4,0,0,1,1-2.89,3.75,3.75,0,0,1,2.82-1,4,4,0,0,1,2,.48,3.25,3.25,0,0,1,1.33,1.37A4.31,4.31,0,0,1,260.35,14.59Zm-4.94,0a3.45,3.45,0,0,0,.26,1.5.92.92,0,0,0,.89.51.89.89,0,0,0,.86-.51,3.47,3.47,0,0,0,.25-1.5,3.32,3.32,0,0,0-.25-1.47.91.91,0,0,0-.88-.5.92.92,0,0,0-.87.5A3.27,3.27,0,0,0,255.41,14.59Z" fill="#5d37cc"/><path d="M269.13,14.59a4,4,0,0,1-1,2.92,3.69,3.69,0,0,1-2.81,1,3.61,3.61,0,0,1-2.76-1.07,4,4,0,0,1-1-2.89,4,4,0,0,1,1-2.89,3.75,3.75,0,0,1,2.82-1,4,4,0,0,1,2,.48,3.25,3.25,0,0,1,1.33,1.37A4.43,4.43,0,0,1,269.13,14.59Zm-4.94,0a3.29,3.29,0,0,0,.27,1.5.9.9,0,0,0,.88.51.89.89,0,0,0,.86-.51,3.47,3.47,0,0,0,.25-1.5,3.32,3.32,0,0,0-.25-1.47.91.91,0,0,0-.88-.5.9.9,0,0,0-.86.5A3.13,3.13,0,0,0,264.19,14.59Z" fill="#5d37cc"/><path d="M273.18,14.13c.32-.5.59-.9.81-1.18l1.71-2.15h2.94L276,14l2.81,4.38h-3l-1.67-2.73-.86.65v2.08h-2.64V8h2.64v4.12a14,14,0,0,1-.14,2.06Z" fill="#5d37cc"/><path d="M287,12.23l1.69-3.65h2.88l-3.23,6v3.84h-2.68V14.66l-3.24-6.08h2.9Z" fill="#5d37cc"/><path d="M299.72,14.59a4,4,0,0,1-1,2.92,3.73,3.73,0,0,1-2.82,1,3.61,3.61,0,0,1-2.76-1.07,4,4,0,0,1-1-2.89,4,4,0,0,1,1-2.89,3.75,3.75,0,0,1,2.82-1,4,4,0,0,1,2,.48,3.25,3.25,0,0,1,1.33,1.37A4.31,4.31,0,0,1,299.72,14.59Zm-4.94,0a3.29,3.29,0,0,0,.27,1.5.9.9,0,0,0,.88.51.89.89,0,0,0,.86-.51,3.47,3.47,0,0,0,.25-1.5,3.32,3.32,0,0,0-.25-1.47.91.91,0,0,0-.88-.5.9.9,0,0,0-.86.5A3.13,3.13,0,0,0,294.78,14.59Z" fill="#5d37cc"/><path d="M306.65,18.42l-.33-1h-.15a2.2,2.2,0,0,1-.92.81,3.3,3.3,0,0,1-1.38.27,2.56,2.56,0,0,1-2-.73,2.83,2.83,0,0,1-.7-2.06v-5h2.63V15a2.39,2.39,0,0,0,.21,1.13.73.73,0,0,0,.7.39,1,1,0,0,0,1-.54,4.16,4.16,0,0,0,.28-1.81V10.8h2.64v7.62Z" fill="#5d37cc"/><path d="M315.05,10.66a3.52,3.52,0,0,1,.66.06l.14,0-.23,2.49a3.58,3.58,0,0,0-.9-.08,1.72,1.72,0,0,0-1.25.39,1.54,1.54,0,0,0-.39,1.13v3.75h-2.63V10.8h2l.41,1.22H313a2.55,2.55,0,0,1,.92-1A2.17,2.17,0,0,1,315.05,10.66Z" fill="#5d37cc"/><path d="M149.25,35.42h-2.62V25.58h5.82v2.14h-3.2v1.87h2.95v2.14h-2.95Z" fill="#5d37cc"/><path d="M153.85,25.9a1.11,1.11,0,0,1,.33-.88,1.62,1.62,0,0,1,1.06-.29,1.57,1.57,0,0,1,1.07.3,1.06,1.06,0,0,1,.34.87c0,.77-.47,1.16-1.41,1.16S153.85,26.67,153.85,25.9Zm2.7,9.52h-2.63V27.8h2.63Z" fill="#5d37cc"/><path d="M163,27.66a3.42,3.42,0,0,1,.65.06l.15,0-.24,2.49a3.5,3.5,0,0,0-.89-.08,1.7,1.7,0,0,0-1.25.39,1.54,1.54,0,0,0-.39,1.13v3.75h-2.63V27.8h2l.41,1.22h.13a2.62,2.62,0,0,1,.92-1A2.2,2.2,0,0,1,163,27.66Z" fill="#5d37cc"/><path d="M170.74,33.08a2.16,2.16,0,0,1-.84,1.85,3.89,3.89,0,0,1-2.39.62,10.33,10.33,0,0,1-1.47-.09,6.19,6.19,0,0,1-1.28-.33V33a8.1,8.1,0,0,0,1.34.45,5.46,5.46,0,0,0,1.3.17c.57,0,.86-.13.86-.39a.45.45,0,0,0-.24-.36,12,12,0,0,0-1.39-.61,3.47,3.47,0,0,1-1.47-1,2.23,2.23,0,0,1-.42-1.39,2,2,0,0,1,.82-1.66,4,4,0,0,1,2.33-.59,5.79,5.79,0,0,1,1.41.17,8.76,8.76,0,0,1,1.38.48L170,30a9.07,9.07,0,0,0-1.11-.4,3.59,3.59,0,0,0-.95-.16c-.43,0-.65.1-.65.32a.39.39,0,0,0,.23.33,11.79,11.79,0,0,0,1.3.56,4.68,4.68,0,0,1,1.19.65,1.79,1.79,0,0,1,.58.74A2.48,2.48,0,0,1,170.74,33.08Z" fill="#5d37cc"/><path d="M175.93,33.48a3.76,3.76,0,0,0,1.27-.27v1.92a5.64,5.64,0,0,1-1,.33,6.23,6.23,0,0,1-1.13.09,2.47,2.47,0,0,1-1.91-.64,2.93,2.93,0,0,1-.58-2V29.77h-.92V28.7l1.17-.83.68-1.6h1.72V27.8h1.87v2h-1.87v3A.64.64,0,0,0,175.93,33.48Z" fill="#5d37cc"/><path d="M188.3,35.42l-.48-1.84h-3.2l-.49,1.84h-2.92l3.21-9.88H188l3.25,9.88Zm-1-4-.43-1.62c-.09-.36-.22-.82-.36-1.39s-.23-1-.27-1.22c0,.22-.13.6-.24,1.13s-.39,1.55-.79,3.1Z" fill="#5d37cc"/><path d="M196.69,35.55a2.59,2.59,0,0,1-1-.19,2.65,2.65,0,0,1-.91-.69h-.12a10,10,0,0,1,.12,1v3.06h-2.63V27.8h2.14l.37,1h.12a2.4,2.4,0,0,1,4-.06,5,5,0,0,1,.72,2.88,4.92,4.92,0,0,1-.75,2.9A2.36,2.36,0,0,1,196.69,35.55Zm-.88-5.82a.87.87,0,0,0-.81.41,2.76,2.76,0,0,0-.25,1.23v.21A3,3,0,0,0,195,33a.91.91,0,0,0,.83.44.76.76,0,0,0,.73-.44,3.34,3.34,0,0,0,.23-1.44,3.16,3.16,0,0,0-.23-1.4A.78.78,0,0,0,195.81,29.73Z" fill="#5d37cc"/><path d="M205.55,35.55a2.59,2.59,0,0,1-1-.19,2.65,2.65,0,0,1-.91-.69h-.12a10,10,0,0,1,.12,1v3.06H201V27.8h2.14l.37,1h.12a2.4,2.4,0,0,1,4-.06,5,5,0,0,1,.72,2.88,4.92,4.92,0,0,1-.75,2.9A2.36,2.36,0,0,1,205.55,35.55Zm-.88-5.82a.87.87,0,0,0-.81.41,2.76,2.76,0,0,0-.25,1.23v.21a3,3,0,0,0,.26,1.42.91.91,0,0,0,.83.44.76.76,0,0,0,.73-.44,3.34,3.34,0,0,0,.23-1.44,3.16,3.16,0,0,0-.23-1.4A.78.78,0,0,0,204.67,29.73Z" fill="#5d37cc"/><path d="M217.12,31.59a4,4,0,0,1-1,2.92,3.71,3.71,0,0,1-2.81,1,3.61,3.61,0,0,1-2.76-1.07,4,4,0,0,1-1-2.89,3.91,3.91,0,0,1,1-2.89,3.75,3.75,0,0,1,2.82-1,4,4,0,0,1,2,.48,3.25,3.25,0,0,1,1.33,1.37A4.43,4.43,0,0,1,217.12,31.59Zm-4.94,0a3.45,3.45,0,0,0,.26,1.5.92.92,0,0,0,.88.51.89.89,0,0,0,.87-.51,3.47,3.47,0,0,0,.25-1.5,3.32,3.32,0,0,0-.25-1.47,1,1,0,0,0-1.75,0A3.27,3.27,0,0,0,212.18,31.59Z" fill="#5d37cc"/><path d="M218.57,25.9a1.11,1.11,0,0,1,.32-.88,1.63,1.63,0,0,1,1.07-.29A1.59,1.59,0,0,1,221,25a1.09,1.09,0,0,1,.33.87c0,.77-.46,1.16-1.4,1.16S218.57,26.67,218.57,25.9Zm2.69,9.52h-2.63V27.8h2.63Z" fill="#5d37cc"/><path d="M227.91,35.42V31.26a2.3,2.3,0,0,0-.22-1.14.74.74,0,0,0-.7-.39,1,1,0,0,0-1,.53,4,4,0,0,0-.3,1.82v3.34H223.1V27.8h2l.33.94h.16a2,2,0,0,1,.93-.81,3.28,3.28,0,0,1,1.37-.27,2.61,2.61,0,0,1,2,.74,2.84,2.84,0,0,1,.7,2.06v5Z" fill="#5d37cc"/><path d="M236.06,33.48a3.86,3.86,0,0,0,1.28-.27v1.92a6,6,0,0,1-1,.33,6.12,6.12,0,0,1-1.12.09,2.46,2.46,0,0,1-1.91-.64,2.93,2.93,0,0,1-.59-2V29.77h-.92V28.7l1.17-.83.68-1.6h1.72V27.8h1.87v2h-1.87v3A.64.64,0,0,0,236.06,33.48Z" fill="#5d37cc"/><path d="M248,35.42V31.28a2.34,2.34,0,0,0-.22-1.16.7.7,0,0,0-.67-.39.93.93,0,0,0-.88.52,3.46,3.46,0,0,0-.29,1.62v3.55h-2.63V31.28a2.47,2.47,0,0,0-.21-1.16.68.68,0,0,0-.65-.39.94.94,0,0,0-.9.55,4.2,4.2,0,0,0-.28,1.8v3.34h-2.63V27.8h2l.33.94h.16a1.93,1.93,0,0,1,.87-.8,2.93,2.93,0,0,1,1.31-.28,2.59,2.59,0,0,1,2.32,1h.21a2.1,2.1,0,0,1,.89-.74,3,3,0,0,1,1.27-.27,2.59,2.59,0,0,1,2,.7,3,3,0,0,1,.65,2.1v5Z" fill="#5d37cc"/><path d="M256.13,35.55a4.07,4.07,0,0,1-3-1,3.8,3.8,0,0,1-1-2.88,4.13,4.13,0,0,1,1-3,3.65,3.65,0,0,1,2.79-1,3.69,3.69,0,0,1,2.66.9,3.44,3.44,0,0,1,.94,2.59v1.17h-4.71a1.33,1.33,0,0,0,.47,1,1.87,1.87,0,0,0,1.2.36,5.6,5.6,0,0,0,2.54-.57V35a4.6,4.6,0,0,1-1.28.43A8.88,8.88,0,0,1,256.13,35.55Zm-.16-6.1a1.09,1.09,0,0,0-.78.3,1.37,1.37,0,0,0-.36.91h2.26a1.38,1.38,0,0,0-.31-.88A1,1,0,0,0,256,29.45Z" fill="#5d37cc"/><path d="M265.77,35.42V31.26a2.3,2.3,0,0,0-.22-1.14.74.74,0,0,0-.7-.39,1,1,0,0,0-1,.53,4,4,0,0,0-.3,1.82v3.34H261V27.8h2l.33.94h.15a2.15,2.15,0,0,1,.93-.81,3.32,3.32,0,0,1,1.37-.27,2.59,2.59,0,0,1,2,.74,2.84,2.84,0,0,1,.7,2.06v5Z" fill="#5d37cc"/><path d="M273.93,33.48a3.81,3.81,0,0,0,1.27-.27v1.92a5.92,5.92,0,0,1-1,.33,6.23,6.23,0,0,1-1.13.09,2.47,2.47,0,0,1-1.91-.64,2.93,2.93,0,0,1-.59-2V29.77h-.92V28.7l1.17-.83.68-1.6h1.72V27.8h1.87v2h-1.87v3A.65.65,0,0,0,273.93,33.48Z" fill="#5d37cc"/><path d="M289.63,35.42h-3.49l-3.59-6.93h-.06c.09,1.09.13,1.92.13,2.5v4.43h-2.36V25.58h3.48l3.58,6.84h0c-.07-1-.1-1.79-.1-2.39V25.58h2.37Z" fill="#5d37cc"/><path d="M298.88,31.59a4,4,0,0,1-1,2.92,3.69,3.69,0,0,1-2.81,1,3.61,3.61,0,0,1-2.76-1.07,4,4,0,0,1-1-2.89,4,4,0,0,1,1-2.89,3.75,3.75,0,0,1,2.82-1,4,4,0,0,1,2,.48,3.25,3.25,0,0,1,1.33,1.37A4.43,4.43,0,0,1,298.88,31.59Zm-4.94,0a3.45,3.45,0,0,0,.26,1.5.92.92,0,0,0,.89.51.89.89,0,0,0,.86-.51,3.47,3.47,0,0,0,.25-1.5,3.32,3.32,0,0,0-.25-1.47.91.91,0,0,0-.88-.5.92.92,0,0,0-.87.5A3.27,3.27,0,0,0,293.94,31.59Z" fill="#5d37cc"/><path d="M306.94,35.42l-.86-3.63-.2-1.1-.14-.88h0c-.22,1.25-.37,2.05-.44,2.37l-.78,3.24h-2.76l-2.08-7.62h2.59l.62,2.92a17.24,17.24,0,0,1,.34,2.51h0a19.33,19.33,0,0,1,.37-2.36l.71-3.07h2.91l.64,3.11a20.9,20.9,0,0,1,.39,2.32h0c0-.34.07-.77.14-1.28a9.6,9.6,0,0,1,.21-1.23l.67-2.92h2.53l-2.09,7.62Z" fill="#5d37cc"/><path d="M315.13,32h-2.22l-.35-6.37h2.91Zm-2.54,2.35a1.23,1.23,0,0,1,.37-.95A1.46,1.46,0,0,1,314,33a1.42,1.42,0,0,1,1,.34,1.45,1.45,0,0,1,0,1.9,1.5,1.5,0,0,1-1,.34,1.53,1.53,0,0,1-1-.34A1.22,1.22,0,0,1,312.59,34.3Z" fill="#5d37cc"/><path d="M216.53,42.09h.68a1.25,1.25,0,0,1,.67.13.5.5,0,0,1,.21.44.52.52,0,0,1-.1.33.44.44,0,0,1-.29.16v0a.59.59,0,0,1,.35.18.57.57,0,0,1,.11.36.6.6,0,0,1-.21.48,1,1,0,0,1-.6.17h-.82Zm.37.94h.36a.58.58,0,0,0,.34-.08.28.28,0,0,0,.11-.25.25.25,0,0,0-.12-.23.69.69,0,0,0-.37-.07h-.32Zm0,.3v.72h.4a.58.58,0,0,0,.35-.09.34.34,0,0,0,.12-.28.32.32,0,0,0-.12-.27.73.73,0,0,0-.37-.08Z" fill="#5d37cc"/><path d="M220.12,43.5a.92.92,0,0,1-.22.66.78.78,0,0,1-.6.23.73.73,0,0,1-.42-.11.67.67,0,0,1-.29-.31,1.16,1.16,0,0,1-.1-.47.92.92,0,0,1,.22-.66.78.78,0,0,1,.6-.23.75.75,0,0,1,.59.24A.92.92,0,0,1,220.12,43.5Zm-1.25,0c0,.39.14.59.44.59s.43-.2.43-.59-.14-.59-.44-.59a.37.37,0,0,0-.33.15A.78.78,0,0,0,218.87,43.5Z" fill="#5d37cc"/><path d="M222.06,43.5a1,1,0,0,1-.21.66.81.81,0,0,1-.6.23.75.75,0,0,1-.43-.11.65.65,0,0,1-.28-.31,1,1,0,0,1-.1-.47,1,1,0,0,1,.21-.66.8.8,0,0,1,.6-.23.78.78,0,0,1,.6.24A1,1,0,0,1,222.06,43.5Zm-1.25,0c0,.39.15.59.44.59s.44-.2.44-.59-.15-.59-.44-.59a.36.36,0,0,0-.33.15A.77.77,0,0,0,220.81,43.5Z" fill="#5d37cc"/><path d="M222.84,43.45l.2-.26.52-.55H224l-.69.74.74,1h-.43l-.55-.75-.21.16v.59h-.36V41.94h.36v1.51Z" fill="#5d37cc"/><path d="M226,42.61l.18,0,0,.34a.44.44,0,0,0-.16,0,.49.49,0,0,0-.36.14.52.52,0,0,0-.13.37v.9h-.37V42.64h.29l0,.3h0a.66.66,0,0,1,.23-.24A.52.52,0,0,1,226,42.61Z" fill="#5d37cc"/><path d="M227.25,44.39a.85.85,0,0,1-.62-.23.9.9,0,0,1-.23-.65,1,1,0,0,1,.21-.66.73.73,0,0,1,.58-.24.69.69,0,0,1,.53.21.75.75,0,0,1,.2.57v.19h-1.14a.57.57,0,0,0,.13.39.48.48,0,0,0,.36.13,1.2,1.2,0,0,0,.28,0l.29-.09v.29a1,1,0,0,1-.27.1Zm-.06-1.5a.34.34,0,0,0-.28.11.56.56,0,0,0-.13.32h.78a.44.44,0,0,0-.1-.32A.33.33,0,0,0,227.19,42.89Z" fill="#5d37cc"/><path d="M229,44.39a.71.71,0,0,1-.59-.23.92.92,0,0,1-.21-.65.93.93,0,0,1,.22-.67.79.79,0,0,1,.61-.23,1.13,1.13,0,0,1,.49.1l-.11.29a1.36,1.36,0,0,0-.38-.08c-.3,0-.45.19-.45.59a.74.74,0,0,0,.11.43.37.37,0,0,0,.33.15,1,1,0,0,0,.46-.12v.31a1,1,0,0,1-.21.09Z" fill="#5d37cc"/><path d="M231.12,44.36l-.05-.23h0a.48.48,0,0,1-.21.19.68.68,0,0,1-.32.07.65.65,0,0,1-.47-.15.67.67,0,0,1-.15-.48V42.64h.37V43.7a.45.45,0,0,0,.08.3.31.31,0,0,0,.25.1.42.42,0,0,0,.34-.14.78.78,0,0,0,.11-.46v-.86h.36v1.72Z" fill="#5d37cc"/><path d="M232.81,42.61l.18,0,0,.34a.41.41,0,0,0-.16,0,.51.51,0,0,0-.36.14.52.52,0,0,0-.13.37v.9h-.37V42.64h.29l.05.3h0a.64.64,0,0,1,.22-.24A.53.53,0,0,1,232.81,42.61Z" fill="#5d37cc"/><path d="M234.18,42.61l.18,0,0,.34a.41.41,0,0,0-.16,0,.48.48,0,0,0-.35.14.53.53,0,0,0-.14.37v.9h-.36V42.64h.28l0,.3h0a.73.73,0,0,1,.22-.24A.53.53,0,0,1,234.18,42.61Z" fill="#5d37cc"/><path d="M234.66,42.19a.17.17,0,0,1,.05-.15.2.2,0,0,1,.15-.06.21.21,0,0,1,.21.21.17.17,0,0,1-.06.14.18.18,0,0,1-.15.06.2.2,0,0,1-.15-.06A.16.16,0,0,1,234.66,42.19Zm.38,2.17h-.36V42.64H235Z" fill="#5d37cc"/><path d="M237.08,44.36h-.37V43.3a.46.46,0,0,0-.08-.29.29.29,0,0,0-.25-.1A.4.4,0,0,0,236,43a.8.8,0,0,0-.11.46v.86h-.36V42.64h.28l.05.23h0a.51.51,0,0,1,.22-.19.68.68,0,0,1,.32-.07.55.55,0,0,1,.62.63Z" fill="#5d37cc"/><path d="M239,42.64v.2l-.3.06a.4.4,0,0,1,.07.13.47.47,0,0,1,0,.17.51.51,0,0,1-.19.42.76.76,0,0,1-.5.15H238a.19.19,0,0,0-.12.17.1.1,0,0,0,.06.09.48.48,0,0,0,.2,0h.3a.61.61,0,0,1,.43.13.41.41,0,0,1,.15.35.52.52,0,0,1-.24.45,1.32,1.32,0,0,1-.7.15,1,1,0,0,1-.53-.12.39.39,0,0,1-.19-.35.36.36,0,0,1,.1-.27.58.58,0,0,1,.28-.15.23.23,0,0,1-.12-.1.27.27,0,0,1-.05-.15.25.25,0,0,1,.06-.16.75.75,0,0,1,.16-.13.5.5,0,0,1-.22-.19.58.58,0,0,1-.08-.3.56.56,0,0,1,.18-.44.73.73,0,0,1,.5-.15h.15l.12,0Zm-1.35,2a.19.19,0,0,0,.1.18.64.64,0,0,0,.3.06,1,1,0,0,0,.45-.08.27.27,0,0,0,.14-.23.16.16,0,0,0-.08-.16.62.62,0,0,0-.29,0H238a.37.37,0,0,0-.25.08A.24.24,0,0,0,237.69,44.63Zm.15-1.43a.33.33,0,0,0,.09.25.33.33,0,0,0,.24.08c.21,0,.31-.11.31-.34a.37.37,0,0,0-.07-.25.35.35,0,0,0-.48,0A.38.38,0,0,0,237.84,43.2Z" fill="#5d37cc"/><path d="M241.26,44.36l-.07-.24h0a.53.53,0,0,1-.25.21.73.73,0,0,1-.32.06.5.5,0,0,1-.54-.52.45.45,0,0,1,.2-.4,1.14,1.14,0,0,1,.6-.15h.3v-.09a.37.37,0,0,0-.08-.25.33.33,0,0,0-.24-.08.69.69,0,0,0-.25,0l-.23.09-.12-.26a1,1,0,0,1,.3-.11,1.27,1.27,0,0,1,.32,0,.75.75,0,0,1,.49.14.58.58,0,0,1,.17.45v1.16Zm-.55-.25A.5.5,0,0,0,241,44a.4.4,0,0,0,.12-.31v-.15h-.23a.69.69,0,0,0-.37.09.25.25,0,0,0-.12.23.21.21,0,0,0,.07.18A.3.3,0,0,0,240.71,44.11Z" fill="#5d37cc"/><path d="M242.9,44.39a.6.6,0,0,1-.5-.23h0c0,.14,0,.23,0,.26v.7H242V42.64h.3a1.65,1.65,0,0,0,0,.23h0a.57.57,0,0,1,.51-.26.61.61,0,0,1,.5.23,1.3,1.3,0,0,1,0,1.32A.62.62,0,0,1,242.9,44.39Zm-.09-1.48a.35.35,0,0,0-.31.13.62.62,0,0,0-.1.4v.06a.75.75,0,0,0,.1.45.34.34,0,0,0,.32.14.33.33,0,0,0,.29-.15.81.81,0,0,0,.1-.45.74.74,0,0,0-.1-.43A.33.33,0,0,0,242.81,42.91Z" fill="#5d37cc"/><path d="M244.89,44.39a.62.62,0,0,1-.51-.23h0c0,.14,0,.23,0,.26v.7H244V42.64h.3s0,.11.05.23h0a.57.57,0,0,1,.51-.26.6.6,0,0,1,.5.23,1.3,1.3,0,0,1,0,1.32A.61.61,0,0,1,244.89,44.39Zm-.09-1.48a.37.37,0,0,0-.32.13.62.62,0,0,0-.1.4v.06a.75.75,0,0,0,.1.45.34.34,0,0,0,.32.14.34.34,0,0,0,.3-.15.91.91,0,0,0,.1-.45.83.83,0,0,0-.1-.43A.34.34,0,0,0,244.8,42.91Z" fill="#5d37cc"/><path d="M247.52,43.5a1,1,0,0,1-.21.66.82.82,0,0,1-.61.23A.77.77,0,0,1,246,44a1.16,1.16,0,0,1-.1-.47,1,1,0,0,1,.22-.66.78.78,0,0,1,.6-.23.75.75,0,0,1,.59.24A.92.92,0,0,1,247.52,43.5Zm-1.25,0c0,.39.15.59.44.59s.44-.2.44-.59-.15-.59-.44-.59a.38.38,0,0,0-.34.15A.87.87,0,0,0,246.27,43.5Z" fill="#5d37cc"/><path d="M247.92,42.19A.21.21,0,0,1,248,42a.21.21,0,0,1,.16-.06.2.2,0,0,1,.15.06.21.21,0,0,1,.05.15.2.2,0,0,1-.05.14.2.2,0,0,1-.15.06.21.21,0,0,1-.16-.06A.2.2,0,0,1,247.92,42.19Zm.39,2.17h-.37V42.64h.37Z" fill="#5d37cc"/><path d="M250.34,44.36H250V43.3a.4.4,0,0,0-.08-.29.28.28,0,0,0-.25-.1.41.41,0,0,0-.34.13.8.8,0,0,0-.11.46v.86h-.36V42.64h.29l0,.23h0a.46.46,0,0,1,.22-.19.64.64,0,0,1,.31-.07.55.55,0,0,1,.62.63Z" fill="#5d37cc"/><path d="M251.49,44.1a.86.86,0,0,0,.27-.05v.28a.53.53,0,0,1-.16,0,.65.65,0,0,1-.2,0c-.34,0-.52-.18-.52-.55v-.92h-.23v-.16l.25-.14.13-.36h.22v.38h.49v.28h-.49v.92a.22.22,0,0,0,.07.19A.21.21,0,0,0,251.49,44.1Z" fill="#5d37cc"/><path d="M253.55,44.36h-.37V43.3a.46.46,0,0,0-.07-.29.26.26,0,0,0-.23-.1.32.32,0,0,0-.31.14.75.75,0,0,0-.1.45v.86h-.37V42.64h.29l.05.23h0a.39.39,0,0,1,.21-.19.57.57,0,0,1,.29-.07.53.53,0,0,1,.53.27h0a.61.61,0,0,1,.22-.2.66.66,0,0,1,.32-.07.54.54,0,0,1,.44.16.65.65,0,0,1,.14.47v1.12h-.36V43.3a.46.46,0,0,0-.08-.29.25.25,0,0,0-.23-.1.35.35,0,0,0-.31.13.67.67,0,0,0-.1.41Z" fill="#5d37cc"/><path d="M255.9,44.39a.85.85,0,0,1-.63-.23.9.9,0,0,1-.23-.65,1,1,0,0,1,.21-.66.73.73,0,0,1,.58-.24.72.72,0,0,1,.54.21.79.79,0,0,1,.19.57v.19h-1.14a.57.57,0,0,0,.13.39.48.48,0,0,0,.36.13,1.36,1.36,0,0,0,.29,0l.28-.09v.29a1,1,0,0,1-.27.1Zm-.07-1.5a.34.34,0,0,0-.28.11.56.56,0,0,0-.13.32h.79a.49.49,0,0,0-.11-.32A.32.32,0,0,0,255.83,42.89Z" fill="#5d37cc"/><path d="M258.49,44.36h-.37V43.3A.4.4,0,0,0,258,43a.28.28,0,0,0-.25-.1.41.41,0,0,0-.34.13.8.8,0,0,0-.11.46v.86H257V42.64h.28l.06.23h0a.54.54,0,0,1,.23-.19.64.64,0,0,1,.31-.07.55.55,0,0,1,.62.63Z" fill="#5d37cc"/><path d="M259.64,44.1a.86.86,0,0,0,.27-.05v.28l-.16,0a.65.65,0,0,1-.2,0c-.34,0-.52-.18-.52-.55v-.92h-.23v-.16l.25-.14.12-.36h.23v.38h.49v.28h-.49v.92a.22.22,0,0,0,.07.19A.21.21,0,0,0,259.64,44.1Z" fill="#5d37cc"/><path d="M261.41,43.87a.47.47,0,0,1-.19.39.87.87,0,0,1-.52.13,1.28,1.28,0,0,1-.56-.1V44a1.32,1.32,0,0,0,.57.14c.22,0,.34-.07.34-.2a.18.18,0,0,0,0-.11l-.12-.09-.24-.11a1,1,0,0,1-.4-.23.43.43,0,0,1,.07-.64.85.85,0,0,1,.48-.12,1.4,1.4,0,0,1,.58.12l-.12.28a1.25,1.25,0,0,0-.47-.12c-.19,0-.29.06-.29.17a.16.16,0,0,0,.08.13,1.66,1.66,0,0,0,.33.16,1.28,1.28,0,0,1,.31.15.43.43,0,0,1,.14.16A.46.46,0,0,1,261.41,43.87Z" fill="#5d37cc"/><path d="M262.18,44a5.44,5.44,0,0,1-.27.74h-.27c.07-.28.12-.54.16-.78h.36Z" fill="#5d37cc"/><path d="M264.23,44.39a.85.85,0,0,1-.63-.23.9.9,0,0,1-.22-.65,1,1,0,0,1,.2-.66.74.74,0,0,1,.58-.24.7.7,0,0,1,.54.21.79.79,0,0,1,.2.57v.19h-1.15a.57.57,0,0,0,.14.39.45.45,0,0,0,.36.13,1.27,1.27,0,0,0,.28,0l.28-.09v.29a1,1,0,0,1-.27.1Zm-.07-1.5a.34.34,0,0,0-.28.11.49.49,0,0,0-.12.32h.78a.44.44,0,0,0-.11-.32A.31.31,0,0,0,264.16,42.89Z" fill="#5d37cc"/><path d="M266.76,44.36h-.37V43.3a.46.46,0,0,0-.07-.29.27.27,0,0,0-.24-.1.32.32,0,0,0-.3.14.75.75,0,0,0-.1.45v.86h-.37V42.64h.29l0,.23h0a.39.39,0,0,1,.21-.19.57.57,0,0,1,.29-.07.53.53,0,0,1,.53.27h0a.61.61,0,0,1,.22-.2.66.66,0,0,1,.32-.07.54.54,0,0,1,.44.16.65.65,0,0,1,.14.47v1.12h-.36V43.3a.46.46,0,0,0-.08-.29.25.25,0,0,0-.23-.1.35.35,0,0,0-.31.13.67.67,0,0,0-.1.41Z" fill="#5d37cc"/><path d="M269.43,44.36l-.07-.24h0a.53.53,0,0,1-.25.21.73.73,0,0,1-.32.06.5.5,0,0,1-.54-.52.45.45,0,0,1,.2-.4,1.14,1.14,0,0,1,.6-.15h.3v-.09a.37.37,0,0,0-.08-.25.33.33,0,0,0-.24-.08.73.73,0,0,0-.25,0l-.23.09-.12-.26a1,1,0,0,1,.3-.11,1.27,1.27,0,0,1,.32,0,.75.75,0,0,1,.49.14.55.55,0,0,1,.17.45v1.16Zm-.54-.25a.5.5,0,0,0,.32-.11.4.4,0,0,0,.12-.31v-.15h-.22a.7.7,0,0,0-.38.09.25.25,0,0,0-.12.23.25.25,0,0,0,.07.18A.31.31,0,0,0,268.89,44.11Z" fill="#5d37cc"/><path d="M270.18,42.19a.21.21,0,0,1,.05-.15.21.21,0,0,1,.16-.06.2.2,0,0,1,.15.06.21.21,0,0,1,0,.15.2.2,0,0,1,0,.14.2.2,0,0,1-.15.06.21.21,0,0,1-.16-.06A.2.2,0,0,1,270.18,42.19Zm.39,2.17h-.37V42.64h.37Z" fill="#5d37cc"/><path d="M271.45,44.36h-.36V41.94h.36Z" fill="#5d37cc"/><path d="M273.88,44.36l-.07-.24h0a.53.53,0,0,1-.25.21.73.73,0,0,1-.32.06.53.53,0,0,1-.4-.14.52.52,0,0,1-.14-.38.45.45,0,0,1,.2-.4,1.14,1.14,0,0,1,.6-.15h.3v-.09a.37.37,0,0,0-.08-.25.33.33,0,0,0-.24-.08.69.69,0,0,0-.25,0L273,43l-.12-.26a1,1,0,0,1,.3-.11,1.22,1.22,0,0,1,.32,0,.75.75,0,0,1,.49.14.58.58,0,0,1,.17.45v1.16Zm-.55-.25a.46.46,0,0,0,.32-.11.4.4,0,0,0,.12-.31v-.15h-.22a.69.69,0,0,0-.37.09.25.25,0,0,0-.12.23.21.21,0,0,0,.07.18A.3.3,0,0,0,273.33,44.11Z" fill="#5d37cc"/><path d="M275.52,44.39a.6.6,0,0,1-.5-.23h0c0,.14,0,.23,0,.26v.7h-.37V42.64h.3a1.65,1.65,0,0,0,.05.23h0a.57.57,0,0,1,.51-.26.61.61,0,0,1,.5.23,1.3,1.3,0,0,1,0,1.32A.63.63,0,0,1,275.52,44.39Zm-.09-1.48a.35.35,0,0,0-.31.13.62.62,0,0,0-.1.4v.06a.75.75,0,0,0,.1.45.34.34,0,0,0,.32.14.33.33,0,0,0,.29-.15.81.81,0,0,0,.1-.45.74.74,0,0,0-.1-.43A.32.32,0,0,0,275.43,42.91Z" fill="#5d37cc"/><path d="M277.51,44.39a.62.62,0,0,1-.51-.23h0c0,.14,0,.23,0,.26v.7h-.37V42.64h.3s0,.11.05.23h0a.57.57,0,0,1,.51-.26.6.6,0,0,1,.5.23,1.3,1.3,0,0,1,0,1.32A.61.61,0,0,1,277.51,44.39Zm-.09-1.48a.37.37,0,0,0-.32.13.62.62,0,0,0-.1.4v.06a.75.75,0,0,0,.1.45.34.34,0,0,0,.32.14.32.32,0,0,0,.29-.15.81.81,0,0,0,.11-.45.83.83,0,0,0-.1-.43A.34.34,0,0,0,277.42,42.91Z" fill="#5d37cc"/><path d="M280.14,43.5a1,1,0,0,1-.21.66.82.82,0,0,1-.61.23.73.73,0,0,1-.42-.11.67.67,0,0,1-.29-.31,1.16,1.16,0,0,1-.1-.47,1,1,0,0,1,.22-.66.78.78,0,0,1,.6-.23.75.75,0,0,1,.59.24A.92.92,0,0,1,280.14,43.5Zm-1.25,0c0,.39.15.59.44.59s.44-.2.44-.59-.15-.59-.44-.59a.38.38,0,0,0-.34.15A.78.78,0,0,0,278.89,43.5Z" fill="#5d37cc"/><path d="M280.54,42.19a.21.21,0,0,1,0-.15.21.21,0,0,1,.16-.06.2.2,0,0,1,.15.06.21.21,0,0,1,.05.15.2.2,0,0,1-.05.14.2.2,0,0,1-.15.06.21.21,0,0,1-.16-.06A.2.2,0,0,1,280.54,42.19Zm.39,2.17h-.37V42.64h.37Z" fill="#5d37cc"/><path d="M283,44.36h-.37V43.3a.4.4,0,0,0-.08-.29.28.28,0,0,0-.25-.1.41.41,0,0,0-.34.13.8.8,0,0,0-.11.46v.86h-.36V42.64h.29l.05.23h0a.54.54,0,0,1,.23-.19.64.64,0,0,1,.31-.07.55.55,0,0,1,.62.63Z" fill="#5d37cc"/><path d="M284.11,44.1a.86.86,0,0,0,.27-.05v.28l-.16,0a.65.65,0,0,1-.2,0c-.34,0-.52-.18-.52-.55v-.92h-.23v-.16l.25-.14.12-.36h.23v.38h.49v.28h-.49v.92a.22.22,0,0,0,.07.19A.21.21,0,0,0,284.11,44.1Z" fill="#5d37cc"/><path d="M286.17,44.36h-.37V43.3a.46.46,0,0,0-.07-.29.27.27,0,0,0-.24-.1.34.34,0,0,0-.31.14.84.84,0,0,0-.09.45v.86h-.37V42.64H285l.05.23h0a.41.41,0,0,1,.2-.19.6.6,0,0,1,.3-.07.53.53,0,0,1,.53.27h0a.61.61,0,0,1,.22-.2.66.66,0,0,1,.32-.07.54.54,0,0,1,.44.16.65.65,0,0,1,.14.47v1.12h-.36V43.3a.46.46,0,0,0-.08-.29.26.26,0,0,0-.23-.1.35.35,0,0,0-.31.13.67.67,0,0,0-.1.41Z" fill="#5d37cc"/><path d="M288.51,44.39a.85.85,0,0,1-.62-.23.9.9,0,0,1-.23-.65,1,1,0,0,1,.21-.66.81.81,0,0,1,1.12,0,.79.79,0,0,1,.19.57v.19H288a.57.57,0,0,0,.13.39.48.48,0,0,0,.36.13,1.36,1.36,0,0,0,.29,0l.28-.09v.29a1,1,0,0,1-.27.1Zm-.06-1.5a.34.34,0,0,0-.28.11.56.56,0,0,0-.13.32h.78a.44.44,0,0,0-.1-.32A.32.32,0,0,0,288.45,42.89Z" fill="#5d37cc"/><path d="M291.11,44.36h-.37V43.3a.4.4,0,0,0-.08-.29.28.28,0,0,0-.25-.1.4.4,0,0,0-.34.13.8.8,0,0,0-.11.46v.86h-.36V42.64h.28l.06.23h0a.57.57,0,0,1,.22-.19.71.71,0,0,1,.32-.07.55.55,0,0,1,.62.63Z" fill="#5d37cc"/><path d="M292.26,44.1a.86.86,0,0,0,.27-.05v.28a.62.62,0,0,1-.16,0,.65.65,0,0,1-.2,0c-.34,0-.52-.18-.52-.55v-.92h-.23v-.16l.25-.14.12-.36H292v.38h.49v.28H292v.92a.25.25,0,0,0,.06.19A.24.24,0,0,0,292.26,44.1Z" fill="#5d37cc"/><path d="M294.57,42.61l.18,0,0,.34a.41.41,0,0,0-.16,0,.48.48,0,0,0-.35.14.53.53,0,0,0-.14.37v.9h-.36V42.64H294l0,.3h0a.73.73,0,0,1,.22-.24A.53.53,0,0,1,294.57,42.61Z" fill="#5d37cc"/><path d="M295.82,44.39a.85.85,0,0,1-.63-.23.9.9,0,0,1-.22-.65,1,1,0,0,1,.21-.66.72.72,0,0,1,.57-.24.7.7,0,0,1,.54.21.79.79,0,0,1,.2.57v.19h-1.15a.57.57,0,0,0,.14.39.45.45,0,0,0,.36.13,1.27,1.27,0,0,0,.28,0l.28-.09v.29a1,1,0,0,1-.27.1Zm-.07-1.5a.36.36,0,0,0-.28.11.49.49,0,0,0-.12.32h.78A.49.49,0,0,0,296,43,.34.34,0,0,0,295.75,42.89Z" fill="#5d37cc"/><path d="M298.35,44.36H298V43.3a.46.46,0,0,0-.07-.29.26.26,0,0,0-.23-.1.33.33,0,0,0-.31.14.75.75,0,0,0-.1.45v.86h-.37V42.64h.29l.05.23h0a.48.48,0,0,1,.21-.19.6.6,0,0,1,.3-.07.51.51,0,0,1,.52.27h0a.58.58,0,0,1,.21-.2.66.66,0,0,1,.32-.07.58.58,0,0,1,.45.16.69.69,0,0,1,.14.47v1.12h-.37V43.3A.46.46,0,0,0,299,43a.27.27,0,0,0-.24-.1.36.36,0,0,0-.31.13.67.67,0,0,0-.1.41Z" fill="#5d37cc"/><path d="M299.92,42.19A.18.18,0,0,1,300,42a.19.19,0,0,1,.15-.06.18.18,0,0,1,.15.06.17.17,0,0,1,.05.15.16.16,0,0,1-.05.14.18.18,0,0,1-.15.06.19.19,0,0,1-.15-.06A.17.17,0,0,1,299.92,42.19Zm.39,2.17H300V42.64h.36Z" fill="#5d37cc"/><path d="M302.35,44.36H302V43.3a.46.46,0,0,0-.08-.29.29.29,0,0,0-.25-.1.4.4,0,0,0-.34.13.8.8,0,0,0-.11.46v.86h-.37V42.64h.29l.05.23h0a.51.51,0,0,1,.22-.19.68.68,0,0,1,.32-.07.55.55,0,0,1,.62.63Z" fill="#5d37cc"/><path d="M303.43,44.39a.61.61,0,0,1-.5-.23,1.06,1.06,0,0,1-.18-.66,1,1,0,0,1,.18-.65.61.61,0,0,1,.51-.24.59.59,0,0,1,.52.25h0a1.89,1.89,0,0,1,0-.29v-.63h.37v2.42H304l-.06-.23h0A.58.58,0,0,1,303.43,44.39Zm.1-.29a.42.42,0,0,0,.33-.13.72.72,0,0,0,.11-.41v-.05a.81.81,0,0,0-.11-.47.39.39,0,0,0-.33-.13.34.34,0,0,0-.3.15.83.83,0,0,0-.1.45.78.78,0,0,0,.1.44A.34.34,0,0,0,303.53,44.1Z" fill="#5d37cc"/><path d="M305.59,44.39a.85.85,0,0,1-.63-.23.9.9,0,0,1-.22-.65,1,1,0,0,1,.21-.66.8.8,0,0,1,1.11,0,.79.79,0,0,1,.2.57v.19h-1.15a.57.57,0,0,0,.14.39.45.45,0,0,0,.36.13,1.27,1.27,0,0,0,.28,0l.28-.09v.29a1,1,0,0,1-.27.1Zm-.07-1.5a.36.36,0,0,0-.28.11.49.49,0,0,0-.12.32h.78a.49.49,0,0,0-.1-.32A.34.34,0,0,0,305.52,42.89Z" fill="#5d37cc"/><path d="M307.54,42.61l.19,0,0,.34a.44.44,0,0,0-.16,0,.49.49,0,0,0-.36.14.52.52,0,0,0-.13.37v.9h-.37V42.64H307l.05.3h0a.76.76,0,0,1,.23-.24A.52.52,0,0,1,307.54,42.61Z" fill="#5d37cc"/><path d="M309.2,43.87a.46.46,0,0,1-.18.39.9.9,0,0,1-.53.13,1.23,1.23,0,0,1-.55-.1V44a1.25,1.25,0,0,0,.56.14c.23,0,.34-.07.34-.2a.14.14,0,0,0,0-.11.31.31,0,0,0-.12-.09l-.24-.11a1,1,0,0,1-.4-.23.39.39,0,0,1-.1-.29.41.41,0,0,1,.17-.35.87.87,0,0,1,.49-.12,1.39,1.39,0,0,1,.57.12l-.12.28a1.2,1.2,0,0,0-.46-.12c-.2,0-.29.06-.29.17a.15.15,0,0,0,.07.13,1.66,1.66,0,0,0,.33.16,1.11,1.11,0,0,1,.31.15.43.43,0,0,1,.14.16A.46.46,0,0,1,309.2,43.87Z" fill="#5d37cc"/><path d="M311.5,44.36l-.08-.24h0a.53.53,0,0,1-.25.21.73.73,0,0,1-.32.06.53.53,0,0,1-.4-.14.52.52,0,0,1-.14-.38.45.45,0,0,1,.2-.4,1.14,1.14,0,0,1,.6-.15h.3v-.09a.37.37,0,0,0-.08-.25.33.33,0,0,0-.24-.08.69.69,0,0,0-.25,0l-.24.09-.11-.26a1,1,0,0,1,.3-.11,1.22,1.22,0,0,1,.32,0,.77.77,0,0,1,.49.14.58.58,0,0,1,.17.45v1.16Zm-.55-.25a.48.48,0,0,0,.32-.11.4.4,0,0,0,.12-.31v-.15h-.22a.69.69,0,0,0-.37.09.25.25,0,0,0-.12.23.21.21,0,0,0,.07.18A.28.28,0,0,0,311,44.11Z" fill="#5d37cc"/><path d="M313.78,44.36h-.37V43.3a.4.4,0,0,0-.08-.29.28.28,0,0,0-.25-.1.4.4,0,0,0-.34.13.8.8,0,0,0-.11.46v.86h-.36V42.64h.28l.06.23h0a.57.57,0,0,1,.22-.19.68.68,0,0,1,.32-.07.55.55,0,0,1,.62.63Z" fill="#5d37cc"/><path d="M314.87,44.39a.6.6,0,0,1-.5-.23,1.06,1.06,0,0,1-.18-.66,1,1,0,0,1,.18-.65.65.65,0,0,1,1,0h0a1.89,1.89,0,0,1,0-.29v-.63h.37v2.42h-.29l-.06-.23h0A.56.56,0,0,1,314.87,44.39Zm.1-.29a.38.38,0,0,0,.32-.13.65.65,0,0,0,.11-.41v-.05a.81.81,0,0,0-.11-.47.39.39,0,0,0-.33-.13.33.33,0,0,0-.29.15.83.83,0,0,0-.11.45.87.87,0,0,0,.1.44A.35.35,0,0,0,315,44.1Z" fill="#5d37cc"/><path d="M274.64,47h.19l0,.34-.16,0a.46.46,0,0,0-.36.15.51.51,0,0,0-.13.37v.9h-.37V47h.29l.05.3h0a.66.66,0,0,1,.23-.24A.52.52,0,0,1,274.64,47Z" fill="#5d37cc"/><path d="M275.89,48.77a.81.81,0,0,1-.62-.24.88.88,0,0,1-.23-.64,1,1,0,0,1,.21-.66.73.73,0,0,1,.58-.24.77.77,0,0,1,.54.2.8.8,0,0,1,.19.57V48h-1.14a.54.54,0,0,0,.13.38.49.49,0,0,0,.36.14,1.23,1.23,0,0,0,.57-.13v.3a1.43,1.43,0,0,1-.27.09A1.51,1.51,0,0,1,275.89,48.77Zm-.06-1.51a.38.38,0,0,0-.28.11.59.59,0,0,0-.13.33h.78a.47.47,0,0,0-.1-.33A.35.35,0,0,0,275.83,47.26Z" fill="#5d37cc"/><path d="M278.13,48.25a.44.44,0,0,1-.18.38.88.88,0,0,1-.53.14,1.22,1.22,0,0,1-.55-.11v-.31a1.4,1.4,0,0,0,.57.14c.22,0,.33-.07.33-.2a.18.18,0,0,0,0-.11.48.48,0,0,0-.13-.09,1,1,0,0,0-.23-.11,1.13,1.13,0,0,1-.41-.23.44.44,0,0,1-.1-.3.38.38,0,0,1,.18-.34.85.85,0,0,1,.48-.12,1.39,1.39,0,0,1,.57.12l-.11.27a1.47,1.47,0,0,0-.47-.11c-.19,0-.29.06-.29.16a.16.16,0,0,0,.07.14,2,2,0,0,0,.33.16,1,1,0,0,1,.31.15.43.43,0,0,1,.15.15A.51.51,0,0,1,278.13,48.25Z" fill="#5d37cc"/><path d="M279.22,48.77a.75.75,0,0,1-.59-.23.92.92,0,0,1-.21-.65,1,1,0,0,1,.22-.67.76.76,0,0,1,.61-.23,1.13,1.13,0,0,1,.49.1l-.11.29a1.13,1.13,0,0,0-.38-.09c-.3,0-.45.2-.45.59a.75.75,0,0,0,.11.44.38.38,0,0,0,.33.14,1,1,0,0,0,.46-.12v.32a.6.6,0,0,1-.21.08A1,1,0,0,1,279.22,48.77Z" fill="#5d37cc"/><path d="M281.62,48.74h-.37V47.68a.51.51,0,0,0-.08-.3.32.32,0,0,0-.25-.09.4.4,0,0,0-.34.13.71.71,0,0,0-.11.46v.86h-.37V46.32h.37v.61c0,.1,0,.21,0,.32h0a.48.48,0,0,1,.21-.19A.62.62,0,0,1,281,47a.56.56,0,0,1,.63.63Z" fill="#5d37cc"/><path d="M282.88,48.77a.82.82,0,0,1-.63-.24.88.88,0,0,1-.23-.64,1,1,0,0,1,.21-.66.73.73,0,0,1,.58-.24.75.75,0,0,1,.54.2.8.8,0,0,1,.19.57V48H282.4a.54.54,0,0,0,.13.38.49.49,0,0,0,.36.14,1.23,1.23,0,0,0,.57-.13v.3a1.43,1.43,0,0,1-.27.09A1.48,1.48,0,0,1,282.88,48.77Zm-.07-1.51a.38.38,0,0,0-.28.11.59.59,0,0,0-.13.33h.78a.47.47,0,0,0-.1-.33A.35.35,0,0,0,282.81,47.26Z" fill="#5d37cc"/><path d="M284.54,48.77a.6.6,0,0,1-.5-.23,1.3,1.3,0,0,1,0-1.32.61.61,0,0,1,.5-.23.59.59,0,0,1,.52.25h0a2,2,0,0,1,0-.29v-.63h.37v2.42h-.29l-.06-.23h0A.58.58,0,0,1,284.54,48.77Zm.1-.3a.38.38,0,0,0,.32-.12.67.67,0,0,0,.11-.41v-.06a.78.78,0,0,0-.11-.46.39.39,0,0,0-.33-.13.33.33,0,0,0-.29.15.81.81,0,0,0-.11.45.83.83,0,0,0,.1.43A.35.35,0,0,0,284.64,48.47Z" fill="#5d37cc"/><path d="M287.15,48.74l0-.23h0a.55.55,0,0,1-.21.19.68.68,0,0,1-.32.07.61.61,0,0,1-.47-.16.65.65,0,0,1-.15-.47V47h.36v1.06a.4.4,0,0,0,.09.29.28.28,0,0,0,.25.1.42.42,0,0,0,.34-.13.81.81,0,0,0,.1-.46V47h.37v1.72Z" fill="#5d37cc"/><path d="M288.33,48.74H288V46.32h.37Z" fill="#5d37cc"/><path d="M289.6,48.77a.82.82,0,0,1-.63-.24.87.87,0,0,1-.22-.64,1,1,0,0,1,.21-.66.72.72,0,0,1,.57-.24.73.73,0,0,1,.54.2.81.81,0,0,1,.2.57V48h-1.15a.55.55,0,0,0,.14.38.46.46,0,0,0,.36.14,1.27,1.27,0,0,0,.28,0,1.19,1.19,0,0,0,.28-.1v.3l-.27.09A1.42,1.42,0,0,1,289.6,48.77Zm-.07-1.51a.39.39,0,0,0-.28.11.52.52,0,0,0-.12.33h.78a.52.52,0,0,0-.1-.33A.38.38,0,0,0,289.53,47.26Z" fill="#5d37cc"/><path d="M292.59,48.74l-.08-.24h0a.78.78,0,0,1-.25.21.73.73,0,0,1-.32.06.57.57,0,0,1-.4-.14.53.53,0,0,1-.14-.39.47.47,0,0,1,.2-.4,1.06,1.06,0,0,1,.6-.14h.3v-.1a.35.35,0,0,0-.08-.24.29.29,0,0,0-.24-.08.69.69,0,0,0-.25,0,1,1,0,0,0-.24.09l-.12-.26a1.15,1.15,0,0,1,.31-.11,1.2,1.2,0,0,1,.31,0,.78.78,0,0,1,.5.14.58.58,0,0,1,.17.45v1.16Zm-.55-.25a.48.48,0,0,0,.32-.11.41.41,0,0,0,.12-.31v-.15h-.22a.68.68,0,0,0-.37.08.26.26,0,0,0-.12.24.24.24,0,0,0,.07.18A.28.28,0,0,0,292,48.49Z" fill="#5d37cc"/><path d="M294.87,48.74h-.37V47.68a.45.45,0,0,0-.08-.3.32.32,0,0,0-.25-.09.4.4,0,0,0-.34.13.78.78,0,0,0-.11.46v.86h-.36V47h.28l.05.22h0a.59.59,0,0,1,.22-.19.83.83,0,0,1,.32-.06.55.55,0,0,1,.62.63Z" fill="#5d37cc"/><path d="M297.28,48.74l-.07-.24h0a.68.68,0,0,1-.25.21.73.73,0,0,1-.32.06.53.53,0,0,1-.39-.14.5.5,0,0,1-.15-.39.47.47,0,0,1,.2-.4,1.06,1.06,0,0,1,.6-.14h.3v-.1a.35.35,0,0,0-.08-.24.29.29,0,0,0-.24-.08.73.73,0,0,0-.25,0,.92.92,0,0,0-.23.09l-.12-.26a1,1,0,0,1,.3-.11,1.27,1.27,0,0,1,.32,0,.75.75,0,0,1,.49.14.55.55,0,0,1,.17.45v1.16Zm-.54-.25a.5.5,0,0,0,.32-.11.41.41,0,0,0,.12-.31v-.15H297a.72.72,0,0,0-.38.08.26.26,0,0,0-.12.24.29.29,0,0,0,.07.18A.31.31,0,0,0,296.74,48.49Z" fill="#5d37cc"/><path d="M298.92,48.77a.59.59,0,0,1-.5-.24h0q0,.22,0,.27v.7h-.37V47h.3a1.65,1.65,0,0,0,0,.23h0a.55.55,0,0,1,.51-.26.59.59,0,0,1,.5.23,1.06,1.06,0,0,1,.18.66,1,1,0,0,1-.18.65A.6.6,0,0,1,298.92,48.77Zm-.09-1.48a.37.37,0,0,0-.31.12.65.65,0,0,0-.1.41v.06a.77.77,0,0,0,.1.45.36.36,0,0,0,.32.14.32.32,0,0,0,.29-.16.93.93,0,0,0,0-.88A.32.32,0,0,0,298.83,47.29Z" fill="#5d37cc"/><path d="M300.91,48.77a.6.6,0,0,1-.51-.24h0c0,.15,0,.24,0,.27v.7H300V47h.3a1.82,1.82,0,0,1,.05.23h0a.55.55,0,0,1,.51-.26.57.57,0,0,1,.5.23,1.06,1.06,0,0,1,.18.66,1,1,0,0,1-.18.65A.59.59,0,0,1,300.91,48.77Zm-.09-1.48a.39.39,0,0,0-.32.12.65.65,0,0,0-.1.41v.06a.77.77,0,0,0,.1.45.37.37,0,0,0,.32.14.33.33,0,0,0,.3-.16,1,1,0,0,0,0-.88A.34.34,0,0,0,300.82,47.29Z" fill="#5d37cc"/><path d="M303.54,47.88a.92.92,0,0,1-.21.65.79.79,0,0,1-.61.24.82.82,0,0,1-.42-.11.79.79,0,0,1-.29-.31,1.19,1.19,0,0,1-.09-.47,1,1,0,0,1,.21-.66.88.88,0,0,1,1.2,0A.94.94,0,0,1,303.54,47.88Zm-1.25,0c0,.39.15.59.44.59s.44-.2.44-.59-.15-.59-.44-.59a.38.38,0,0,0-.34.15A.84.84,0,0,0,302.29,47.88Z" fill="#5d37cc"/><path d="M303.94,46.56a.25.25,0,0,1,.05-.15.25.25,0,0,1,.16,0,.21.21,0,0,1,.15.35.2.2,0,0,1-.15,0,.21.21,0,0,1-.16,0A.25.25,0,0,1,303.94,46.56Zm.39,2.18H304V47h.37Z" fill="#5d37cc"/><path d="M306.36,48.74H306V47.68a.51.51,0,0,0-.08-.3.34.34,0,0,0-.26-.09.41.41,0,0,0-.34.13.78.78,0,0,0-.11.46v.86h-.36V47h.29l.05.22h0a.52.52,0,0,1,.22-.19.78.78,0,0,1,.31-.06.55.55,0,0,1,.62.63Z" fill="#5d37cc"/><path d="M307.51,48.47a.84.84,0,0,0,.27,0v.28l-.16,0-.2,0c-.34,0-.52-.18-.52-.55v-.93h-.23v-.16l.25-.13.13-.36h.22V47h.49v.27h-.49v.92a.24.24,0,0,0,.07.2A.24.24,0,0,0,307.51,48.47Z" fill="#5d37cc"/><path d="M309.57,48.74h-.37V47.68a.51.51,0,0,0-.07-.3.29.29,0,0,0-.23-.09.34.34,0,0,0-.31.13.78.78,0,0,0-.1.46v.86h-.37V47h.29l0,.22h0a.49.49,0,0,1,.21-.19A.72.72,0,0,1,309,47a.53.53,0,0,1,.53.27h0a.53.53,0,0,1,.22-.2.66.66,0,0,1,.32-.07.57.57,0,0,1,.44.15.67.67,0,0,1,.15.48v1.12h-.37V47.68a.51.51,0,0,0-.08-.3.27.27,0,0,0-.23-.09.35.35,0,0,0-.31.13.65.65,0,0,0-.1.41Z" fill="#5d37cc"/><path d="M311.92,48.77a.82.82,0,0,1-.63-.24.88.88,0,0,1-.23-.64,1,1,0,0,1,.21-.66.73.73,0,0,1,.58-.24.75.75,0,0,1,.54.2.8.8,0,0,1,.19.57V48h-1.14a.54.54,0,0,0,.13.38.49.49,0,0,0,.36.14,1.23,1.23,0,0,0,.57-.13v.3a1.43,1.43,0,0,1-.27.09A1.48,1.48,0,0,1,311.92,48.77Zm-.07-1.51a.38.38,0,0,0-.28.11.52.52,0,0,0-.12.33h.78a.52.52,0,0,0-.11-.33A.35.35,0,0,0,311.85,47.26Z" fill="#5d37cc"/><path d="M314.51,48.74h-.37V47.68a.45.45,0,0,0-.08-.3.3.3,0,0,0-.25-.09.41.41,0,0,0-.34.13.78.78,0,0,0-.11.46v.86H313V47h.29l0,.22h0a.52.52,0,0,1,.22-.19.78.78,0,0,1,.31-.06.55.55,0,0,1,.62.63Z" fill="#5d37cc"/><path d="M315.66,48.47a.84.84,0,0,0,.27,0v.28l-.16,0-.2,0c-.34,0-.52-.18-.52-.55v-.93h-.23v-.16l.25-.13.13-.36h.22V47h.49v.27h-.49v.92a.24.24,0,0,0,.07.2A.24.24,0,0,0,315.66,48.47Z" fill="#5d37cc"/><path d="M314.26,63.39H291.08a5.4,5.4,0,0,1-5.4-5.4h0a5.4,5.4,0,0,1,5.4-5.4h23.18a5.4,5.4,0,0,1,5.4,5.4h0A5.4,5.4,0,0,1,314.26,63.39Z" fill="#ff7981"/><path d="M291.81,56.35h.89a1.73,1.73,0,0,1,.87.17.6.6,0,0,1,.28.55.7.7,0,0,1-.12.42.51.51,0,0,1-.32.19v0a.63.63,0,0,1,.39.23.72.72,0,0,1,.12.44.71.71,0,0,1-.28.6,1.18,1.18,0,0,1-.76.22h-1.07Zm.61,1.12h.34a.65.65,0,0,0,.36-.07.3.3,0,0,0,.11-.25.26.26,0,0,0-.12-.24.88.88,0,0,0-.38-.07h-.31Zm0,.48v.74h.39a.58.58,0,0,0,.36-.09.36.36,0,0,0,.12-.29c0-.24-.17-.36-.5-.36Z" fill="#fff"/><path d="M296.41,58.1a1.16,1.16,0,0,1-.28.83,1,1,0,0,1-.78.3,1.12,1.12,0,0,1-.55-.14.85.85,0,0,1-.36-.39,1.26,1.26,0,0,1-.13-.6,1.18,1.18,0,0,1,.27-.83,1.07,1.07,0,0,1,.79-.29,1.12,1.12,0,0,1,.55.13.93.93,0,0,1,.37.39A1.4,1.4,0,0,1,296.41,58.1Zm-1.5,0a.94.94,0,0,0,.11.49.44.44,0,0,0,.68,0,.91.91,0,0,0,.11-.49.85.85,0,0,0-.11-.48.37.37,0,0,0-.34-.17.39.39,0,0,0-.34.16A.91.91,0,0,0,294.91,58.1Z" fill="#fff"/><path d="M298.88,58.1a1.21,1.21,0,0,1-.28.83,1,1,0,0,1-.78.3,1.1,1.1,0,0,1-.55-.14.87.87,0,0,1-.37-.39,1.26,1.26,0,0,1-.13-.6,1.14,1.14,0,0,1,.28-.83,1,1,0,0,1,.78-.29,1.09,1.09,0,0,1,.55.13.93.93,0,0,1,.37.39A1.4,1.4,0,0,1,298.88,58.1Zm-1.5,0a.94.94,0,0,0,.1.49.38.38,0,0,0,.35.16.38.38,0,0,0,.34-.16.92.92,0,0,0,.1-.49.86.86,0,0,0-.1-.48.44.44,0,0,0-.69,0A.92.92,0,0,0,297.38,58.1Z" fill="#fff"/><path d="M299.94,58l.25-.33.61-.66h.67l-.86.94.91,1.23h-.68l-.63-.88-.25.2v.68h-.59v-3H300v1.34l0,.5Z" fill="#fff"/><path d="M304,59.19h-.6V56.85h-.77v-.5h2.14v.5H304Z" fill="#fff"/><path d="M307.15,58.1a1.21,1.21,0,0,1-.28.83,1,1,0,0,1-.78.3,1.07,1.07,0,0,1-.55-.14.87.87,0,0,1-.37-.39,1.26,1.26,0,0,1-.13-.6,1.14,1.14,0,0,1,.28-.83,1,1,0,0,1,.78-.29,1.09,1.09,0,0,1,.55.13.93.93,0,0,1,.37.39A1.4,1.4,0,0,1,307.15,58.1Zm-1.51,0a.94.94,0,0,0,.11.49.38.38,0,0,0,.34.16.38.38,0,0,0,.35-.16,1,1,0,0,0,.1-.49.85.85,0,0,0-.11-.48.36.36,0,0,0-.34-.17.39.39,0,0,0-.34.16A.91.91,0,0,0,305.64,58.1Z" fill="#fff"/><path d="M308.32,59.23a.71.71,0,0,1-.6-.3,1.4,1.4,0,0,1-.22-.82,1.38,1.38,0,0,1,.23-.84.72.72,0,0,1,.61-.29.7.7,0,0,1,.62.31h0a2.29,2.29,0,0,1,0-.43v-.69h.59v3h-.45l-.12-.28h0A.69.69,0,0,1,308.32,59.23Zm.21-.47a.39.39,0,0,0,.33-.14.76.76,0,0,0,.12-.45v-.06a.9.9,0,0,0-.11-.5.4.4,0,0,0-.35-.15.35.35,0,0,0-.31.17.91.91,0,0,0-.11.49.9.9,0,0,0,.11.48A.39.39,0,0,0,308.53,58.76Z" fill="#fff"/><path d="M311.53,59.19l-.11-.3h0a.85.85,0,0,1-.31.27,1.12,1.12,0,0,1-.41.07.66.66,0,0,1-.49-.18.69.69,0,0,1-.18-.51.58.58,0,0,1,.24-.51,1.39,1.39,0,0,1,.73-.18h.38v-.1c0-.22-.11-.33-.34-.33a1.46,1.46,0,0,0-.61.16l-.2-.4A1.78,1.78,0,0,1,311,57a1.07,1.07,0,0,1,.67.19.7.7,0,0,1,.24.58v1.45Zm-.17-1h-.23a.93.93,0,0,0-.39.09.31.31,0,0,0-.12.26c0,.17.09.25.29.25a.43.43,0,0,0,.32-.11.41.41,0,0,0,.13-.32Z" fill="#fff"/><path d="M312.25,57h.64l.41,1.22a1.8,1.8,0,0,1,.08.38h0a1.51,1.51,0,0,1,.08-.38l.4-1.22h.64l-.92,2.45a1.08,1.08,0,0,1-.36.51.94.94,0,0,1-.55.17,1.54,1.54,0,0,1-.3,0v-.47a.88.88,0,0,0,.24,0,.39.39,0,0,0,.27-.1.56.56,0,0,0,.18-.29l0-.11Z" fill="#fff"/></g></svg>